<mxfile host="app.diagrams.net" modified="2023-06-28T15:24:21.349Z" agent="Mozilla/5.0 (Windows NT 10.0; Win64; x64) AppleWebKit/537.36 (KHTML, like Gecko) Chrome/116.0.0.0 Safari/537.36 Edg/116.0.0.0" etag="c98HR0JP2QRYXR4Z04vJ" version="21.1.5" type="device">
  <diagram name="Page-1" id="5rpDBRcSpKlvXIvardVs">
    <mxGraphModel dx="1589" dy="454" grid="1" gridSize="10" guides="1" tooltips="1" connect="1" arrows="1" fold="1" page="1" pageScale="1" pageWidth="827" pageHeight="1169" math="0" shadow="0">
      <root>
        <mxCell id="0" />
        <mxCell id="1" parent="0" />
        <mxCell id="sbDM5teDACFF1bLWPAz8-1" value="Dataset on historical gene therapy clinical trials from Nature Research" style="shape=cylinder3;whiteSpace=wrap;html=1;boundedLbl=1;backgroundOutline=1;size=15;" vertex="1" parent="1">
          <mxGeometry x="-300" y="180" width="130" height="150" as="geometry" />
        </mxCell>
        <mxCell id="sbDM5teDACFF1bLWPAz8-2" value="Analyses Dataset Record by Record" style="shape=process;whiteSpace=wrap;html=1;backgroundOutline=1;" vertex="1" parent="1">
          <mxGeometry x="270" y="230" width="120" height="60" as="geometry" />
        </mxCell>
        <mxCell id="sbDM5teDACFF1bLWPAz8-3" value="" style="endArrow=classic;html=1;rounded=0;" edge="1" parent="1">
          <mxGeometry width="50" height="50" relative="1" as="geometry">
            <mxPoint x="-145" y="259.5" as="sourcePoint" />
            <mxPoint x="-65" y="259.5" as="targetPoint" />
          </mxGeometry>
        </mxCell>
        <mxCell id="sbDM5teDACFF1bLWPAz8-4" value="Data is fed into the&amp;nbsp;&lt;br&gt;Logistic Regression&lt;br&gt;algorithmn" style="text;html=1;align=center;verticalAlign=middle;resizable=0;points=[];autosize=1;strokeColor=none;fillColor=none;" vertex="1" parent="1">
          <mxGeometry x="-170" y="190" width="130" height="60" as="geometry" />
        </mxCell>
        <mxCell id="sbDM5teDACFF1bLWPAz8-26" style="edgeStyle=orthogonalEdgeStyle;rounded=0;orthogonalLoop=1;jettySize=auto;html=1;exitX=1;exitY=0.5;exitDx=0;exitDy=0;entryX=0.5;entryY=0;entryDx=0;entryDy=0;" edge="1" parent="1" source="sbDM5teDACFF1bLWPAz8-5" target="sbDM5teDACFF1bLWPAz8-2">
          <mxGeometry relative="1" as="geometry">
            <Array as="points">
              <mxPoint x="150" y="260" />
              <mxPoint x="150" y="210" />
              <mxPoint x="330" y="210" />
            </Array>
          </mxGeometry>
        </mxCell>
        <mxCell id="sbDM5teDACFF1bLWPAz8-5" value="Logistic Regression&lt;br&gt;Algorithm" style="rounded=0;whiteSpace=wrap;html=1;" vertex="1" parent="1">
          <mxGeometry x="-26" y="230" width="120" height="60" as="geometry" />
        </mxCell>
        <mxCell id="sbDM5teDACFF1bLWPAz8-25" style="edgeStyle=orthogonalEdgeStyle;rounded=0;orthogonalLoop=1;jettySize=auto;html=1;exitX=0.5;exitY=1;exitDx=0;exitDy=0;entryX=1;entryY=0.5;entryDx=0;entryDy=0;" edge="1" parent="1" source="sbDM5teDACFF1bLWPAz8-9" target="sbDM5teDACFF1bLWPAz8-15">
          <mxGeometry relative="1" as="geometry" />
        </mxCell>
        <mxCell id="sbDM5teDACFF1bLWPAz8-9" value="Learns Patterns in the Data" style="rounded=0;whiteSpace=wrap;html=1;" vertex="1" parent="1">
          <mxGeometry x="260" y="330" width="140" height="60" as="geometry" />
        </mxCell>
        <mxCell id="sbDM5teDACFF1bLWPAz8-12" value="" style="html=1;shadow=0;dashed=0;align=center;verticalAlign=middle;shape=mxgraph.arrows2.uTurnArrow;dy=11;arrowHead=43;dx2=25;rotation=-180;" vertex="1" parent="1">
          <mxGeometry x="410" y="250" width="100" height="130" as="geometry" />
        </mxCell>
        <mxCell id="sbDM5teDACFF1bLWPAz8-13" value="" style="html=1;shadow=0;dashed=0;align=center;verticalAlign=middle;shape=mxgraph.arrows2.uTurnArrow;dy=11;arrowHead=43;dx2=25;" vertex="1" parent="1">
          <mxGeometry x="140" y="240" width="100" height="140" as="geometry" />
        </mxCell>
        <mxCell id="sbDM5teDACFF1bLWPAz8-15" value="Model is produced and can be used to predict the success of gene therapy trails" style="rounded=0;whiteSpace=wrap;html=1;" vertex="1" parent="1">
          <mxGeometry x="20" y="400" width="160" height="90" as="geometry" />
        </mxCell>
        <mxCell id="sbDM5teDACFF1bLWPAz8-17" value="Doctors&lt;br&gt;" style="shape=umlActor;verticalLabelPosition=top;verticalAlign=bottom;html=1;outlineConnect=0;labelPosition=center;align=center;" vertex="1" parent="1">
          <mxGeometry x="-180" y="415" width="30" height="60" as="geometry" />
        </mxCell>
        <mxCell id="sbDM5teDACFF1bLWPAz8-18" value="Scientist&lt;br&gt;" style="shape=umlActor;verticalLabelPosition=top;verticalAlign=bottom;html=1;outlineConnect=0;labelPosition=center;align=center;" vertex="1" parent="1">
          <mxGeometry x="-121" y="415" width="30" height="60" as="geometry" />
        </mxCell>
        <mxCell id="sbDM5teDACFF1bLWPAz8-20" value="" style="endArrow=classic;html=1;rounded=0;entryX=0;entryY=0.5;entryDx=0;entryDy=0;" edge="1" parent="1" target="sbDM5teDACFF1bLWPAz8-15">
          <mxGeometry width="50" height="50" relative="1" as="geometry">
            <mxPoint x="-80" y="445" as="sourcePoint" />
            <mxPoint x="10" y="444.5" as="targetPoint" />
          </mxGeometry>
        </mxCell>
        <mxCell id="sbDM5teDACFF1bLWPAz8-21" value="Ordinary &lt;br&gt;People" style="shape=umlActor;verticalLabelPosition=top;verticalAlign=bottom;html=1;outlineConnect=0;labelPosition=center;align=center;" vertex="1" parent="1">
          <mxGeometry x="-240" y="415" width="30" height="65" as="geometry" />
        </mxCell>
        <mxCell id="sbDM5teDACFF1bLWPAz8-23" style="edgeStyle=orthogonalEdgeStyle;rounded=0;orthogonalLoop=1;jettySize=auto;html=1;exitX=0.5;exitY=0;exitDx=0;exitDy=0;" edge="1" parent="1" source="sbDM5teDACFF1bLWPAz8-22">
          <mxGeometry relative="1" as="geometry">
            <mxPoint x="-159.71428571428578" y="490" as="targetPoint" />
          </mxGeometry>
        </mxCell>
        <mxCell id="sbDM5teDACFF1bLWPAz8-22" value="End Users" style="text;html=1;strokeColor=none;fillColor=none;align=center;verticalAlign=middle;whiteSpace=wrap;rounded=0;" vertex="1" parent="1">
          <mxGeometry x="-190" y="510" width="60" height="30" as="geometry" />
        </mxCell>
      </root>
    </mxGraphModel>
  </diagram>
</mxfile>
